<svg xmlns="http://www.w3.org/2000/svg" width="229" height="229" viewBox="0 0 229 229" fill="none">
<circle cx="114.5" cy="114.5" r="114.5" fill="#35E9A8"/>
<path d="M131.619 88.703C132.56 86.7041 131.702 84.3212 129.703 83.3806C127.704 82.4401 125.321 83.2981 124.381 85.297L131.619 88.703ZM98.2366 143.613C98.985 145.691 101.277 146.77 103.355 146.021L137.226 133.826C139.305 133.077 140.383 130.786 139.635 128.707C138.886 126.628 136.595 125.55 134.516 126.299L104.408 137.139L93.5677 107.031C92.8193 104.953 90.5277 103.875 88.4492 104.623C86.3707 105.371 85.2924 107.663 86.0408 109.742L98.2366 143.613ZM124.381 85.297L98.3807 140.555L105.619 143.961L131.619 88.703L124.381 85.297Z" fill="#0E0E0E"/>
</svg>