<svg width="229" height="229" viewBox="0 0 229 229" fill="none" xmlns="http://www.w3.org/2000/svg">
<g id="Group 1">
<circle id="Ellipse 1" cx="114.5" cy="114.5" r="114.5" fill="#35E9A8"/>
<path id="Arrow 1" d="M84.4655 110.629C82.2563 110.629 80.4655 112.42 80.4655 114.629C80.4655 116.838 82.2563 118.629 84.4655 118.629V110.629ZM148.363 117.457C149.925 115.895 149.925 113.363 148.363 111.8L122.907 86.3446C121.345 84.7825 118.812 84.7825 117.25 86.3446C115.688 87.9067 115.688 90.4394 117.25 92.0015L139.878 114.629L117.25 137.256C115.688 138.818 115.688 141.351 117.25 142.913C118.812 144.475 121.345 144.475 122.907 142.913L148.363 117.457ZM84.4655 118.629L145.535 118.629V110.629L84.4655 110.629V118.629Z" fill="black"/>
</g>
</svg>